<svg width="1024" height="1024" viewBox="0 0 1024 1024" fill="none" xmlns="http://www.w3.org/2000/svg">
<g clip-path="url(#clip0_1_2)">
<path d="M-129.273 -112.207H1153.27V1136.21H-129.273V-112.207Z" fill="white"/>
<path d="M798.769 550.524L759.248 593.526V380.622C759.248 365.801 749.735 353.928 742.073 344.384C740.7 342.672 739.168 340.791 737.827 338.995C739.647 336.553 740.7 333.633 740.7 330.546V328.216C740.7 319.543 732.464 312.497 722.312 312.497H610.164V310.364C610.164 259.137 575.144 211.896 518.799 187.083C508.104 182.395 501.464 173.329 501.464 163.448V142.396C514.457 140.066 524.162 130.803 524.162 119.772V68.1524C524.162 55.2965 501.081 44.8828 484.992 44.8828H372.365C356.308 44.8828 343.251 55.2965 343.251 68.1524V119.772C343.251 131.73 354.679 141.498 369.237 142.761V159.182C369.237 170.718 361.128 181.469 348.071 187.279C292.045 212.149 257.249 259.305 257.249 310.392V358.756C257.249 371.724 266.666 383.26 280.776 388.734V539.832C266.613 548.385 253.373 558.062 241.223 568.743C215.129 591.674 194.43 618.9 180.309 648.867C166.188 678.834 158.921 710.954 158.924 743.392H58.1726L222.484 922.054L296.387 841.691C333.195 899.598 399.149 941.338 476.692 951.386C482.502 963.12 512.67 976.2 581.401 976.2C618.29 976.201 654.817 969.814 688.898 957.402C722.979 944.991 753.945 926.799 780.03 903.865C832.717 857.537 862.321 794.705 862.329 729.188H963.08L798.769 550.524ZM709.032 337.139C710.628 344.297 715.736 350.669 721.131 357.377C727.26 365.04 733.613 372.928 733.613 380.619V621.371L728.186 627.293C690.133 569.134 622.455 527.787 543.38 519.282C539.166 513.416 528.823 507.437 510.626 503.058V380.619C510.626 372.928 516.979 365.04 523.109 357.377C528.504 350.669 533.611 344.297 535.208 337.139L535.655 335.034H708.585L709.032 337.139ZM368.726 119.741V68.1215C368.726 66.4934 370.354 65.2022 372.397 65.2022H495.016C497.059 65.2022 498.687 66.5215 498.687 68.1215V119.741C498.687 121.341 497.027 122.632 495.016 122.632H372.397C370.354 122.632 368.726 121.341 368.726 119.741ZM295.908 371.44C288.278 370.261 282.756 364.928 282.756 358.725V310.361C282.756 266.657 312.54 226.293 360.49 205.044C381.623 195.641 394.744 178.07 394.744 159.151V142.983H475.989V163.445C475.989 180.736 487.673 196.624 506.508 204.904C554.713 226.125 584.689 266.545 584.689 310.361V312.494H521.927C511.776 312.494 503.539 319.54 503.539 328.213V330.543C503.539 333.631 504.593 336.55 506.413 338.992C505.072 340.788 503.571 342.669 502.167 344.409C494.537 353.925 484.992 365.798 484.992 380.619V498.679C472.286 497.22 457.314 496.377 439.852 496.377C392.796 496.377 346.922 506.791 306.251 526.103L306.283 381.433C306.283 376.577 301.91 372.367 295.908 371.44ZM313.913 822.629L386.795 743.389H290.864C290.768 740.835 290.673 738.28 290.673 735.698C290.673 680.541 316.786 630.634 358.734 595.07C387.595 571.076 422.978 553.998 461.496 545.471C461.56 545.471 461.624 545.443 461.688 545.443C462.198 545.331 462.741 545.218 463.284 545.106C479.609 541.816 496.304 540.159 513.053 540.166C599.023 540.166 673.788 583.281 710.756 646.24L634.458 729.186H735.241C735.241 741.901 734.411 754.448 732.655 766.658C715.704 859.821 623.7 931.23 513.053 931.23C425.933 931.23 350.37 886.936 313.913 822.629Z" fill="#EF3340"/>
<path d="M577.202 857.482C589.838 854.957 602.927 850.385 616.501 843.765L590.032 802.809C583.31 805.895 576.071 808.532 568.347 810.748C560.623 812.936 551.477 814.058 540.941 814.058C528.66 814.058 519.126 811.225 512.404 805.53C505.682 799.864 501.06 790.747 498.507 778.208H567.054V741.881H495.275V724.377H567.054V688.19H498.346C500.737 676.296 505.229 667.628 511.855 662.186C518.447 656.744 528.143 654.023 540.941 654.023C551.347 654.023 560.299 654.893 567.797 656.66C575.263 658.427 582.437 660.783 589.289 663.757L616.889 620.473C595.946 609.926 570.771 604.624 541.329 604.624C508.623 604.624 484.32 611.16 468.451 624.204C452.615 637.248 442.726 658.567 438.783 688.19H412.896V724.377H436.133V741.881H412.896V778.208H438.783C442.726 807.606 452.357 828.813 467.708 841.801C483.059 854.789 506.134 861.269 536.966 861.269C551.153 861.269 564.565 860.007 577.202 857.482Z" fill="#EF3340"/>
</g>
<defs>
<clipPath id="clip0_1_2">
<rect width="1024" height="1024" fill="white"/>
</clipPath>
</defs>
</svg>
